<svg xmlns="http://www.w3.org/2000/svg" width="100%" height="100%" viewBox="0 0 600 650"><defs><filter id="sketch-rough" width="120%" height="120%" x="-10%" y="-10%"><feTurbulence baseFrequency=".04" numOctaves="2" result="noise" type="fractalNoise"/><feDisplacementMap in="SourceGraphic" in2="noise" scale="2.5" xChannelSelector="R" yChannelSelector="G"/></filter><style>.ink-line{stroke-width:4}.ink-line,.ink-thick,.ink-thin{stroke:#2c2825;stroke-linecap:round;stroke-linejoin:round;fill:none}.ink-thin{stroke-width:2.5}.ink-thick{stroke-width:5.5}</style></defs><g filter="url(#sketch-rough)"><path d="M 400,60 L 415,40" class="ink-thin"/><path d="M 420,75 L 445,65" class="ink-thin"/><path d="M 425,95 L 450,100" class="ink-thin"/><path fill="#2C2825" d="M 120,70 Q 120,85 105,85 Q 120,85 120,100 Q 120,85 135,85 Q 120,85 120,70 Z" class="ink-thin" opacity=".8"/><path fill="#2C2825" d="M 470,250 Q 470,262 458,262 Q 470,262 470,274 Q 470,262 482,262 Q 470,262 470,250 Z" class="ink-thin" opacity=".8"/><path fill="#E07A5F" stroke="#2C2825" stroke-linejoin="round" stroke-width="2.5" d="M 130,260 C 130,252 120,248 114,255 C 108,248 98,252 98,260 C 98,270 114,278 114,278 C 114,278 130,270 130,260 Z"/><circle cx="485" cy="180" r="4" fill="#2C2825"/><circle cx="105" cy="150" r="3" fill="#2C2825"/><ellipse cx="300" cy="580" fill="#2C2825" rx="14" ry="6"/><path d="M 296,480 L 297,580" class="ink-line"/><path d="M 304,480 L 303,580" class="ink-line"/><rect width="16" height="10" x="292" y="472" fill="#2C2825" class="ink-line" rx="2"/><path d="M 294,360 L 295,472" class="ink-line"/><path d="M 306,360 L 305,472" class="ink-line"/><rect width="20" height="12" x="290" y="350" fill="#EAE3D2" class="ink-line" rx="2"/><line x1="290" x2="310" y1="356" y2="356" class="ink-thin"/><path d="M 292,230 L 293,350" class="ink-thick"/><path d="M 308,230 L 307,350" class="ink-thick"/><line x1="293" x2="307" y1="260" y2="260" class="ink-thin"/><line x1="293" x2="307" y1="280" y2="280" class="ink-thin"/><line x1="293" x2="307" y1="300" y2="300" class="ink-thin"/><line x1="293" x2="307" y1="320" y2="320" class="ink-thin"/><rect width="36" height="14" x="282" y="218" fill="#EAE3D2" class="ink-line" rx="3"/><path fill="#2C2825" d="M 318,220 L 328,220 C 331,220 333,222 333,224 L 333,226 C 333,228 331,230 328,230 L 318,230" class="ink-line"/><rect width="16" height="14" x="292" y="205" fill="#2C2825" class="ink-thick" rx="2"/><path d="M 135,135 C 120,135 115,155 135,160" class="ink-line"/><path d="M 465,135 C 480,135 485,155 465,160" class="ink-line"/><ellipse cx="120" cy="147" class="ink-thin" rx="4" ry="7"/><ellipse cx="480" cy="147" class="ink-thin" rx="4" ry="7"/><rect width="30" height="15" x="180" y="60" fill="#EAE3D2" class="ink-line" rx="3"/><line x1="190" x2="190" y1="60" y2="67" class="ink-thin"/><line x1="200" x2="200" y1="60" y2="67" class="ink-thin"/><path fill="#EAE3D2" d="M 370,75 L 370,57 C 370,53 395,53 395,57 L 395,75" class="ink-line"/><line x1="375" x2="390" y1="63" y2="63" class="ink-thin"/><path fill="#FCF9F2" d="M 255,75 L 265,50 C 267,45 273,43 280,43 L 320,43 C 327,43 333,45 335,50 L 345,75" class="ink-thick"/><path d="M 285,43 L 285,37 L 315,37 L 315,43" class="ink-thin"/><rect width="330" height="132" x="135" y="75" fill="#FCF9F2" class="ink-thick" rx="20"/><path d="M 136,115 C 230,117 370,113 464,115" class="ink-line"/><path stroke-dasharray="6 5" d="M 140,121 C 240,123 360,119 460,121" class="ink-thin"/><circle cx="175" cy="97" r="6" fill="#E07A5F" stroke="#2C2825" stroke-width="2.5"/><rect width="34" height="20" x="390" y="89" fill="#2C2825" class="ink-line" rx="4"/><rect width="26" height="13" x="394" y="92" fill="#FCF9F2" class="ink-thin" rx="3"/><line x1="412" x2="402" y1="93" y2="104" class="ink-thin"/><circle cx="365" cy="97" r="4.5" fill="#F4A261" class="ink-line"/><circle cx="300" cy="145" r="54" fill="#EAE3D2" class="ink-thick"/><circle cx="300" cy="145" r="46" fill="#FCF9F2" class="ink-line"/><circle cx="300" cy="145" r="35" fill="#2C2825" class="ink-line"/><circle cx="300" cy="145" r="27" fill="#3D3835" class="ink-thin"/><path fill="#FCF9F2" d="M 282,127 A 23 23 0 0 1 318,127 A 19 19 0 0 0 282,127 Z" opacity=".85"/><circle cx="312" cy="155" r="3" fill="#FCF9F2" opacity=".7"/></g></svg>