<svg xmlns="http://www.w3.org/2000/svg" width="100%" height="100%" viewBox="0 0 1000 700"><defs><filter id="doodle-filter" width="120%" height="120%" x="-10%" y="-10%"><feTurbulence baseFrequency=".035" numOctaves="3" result="noise" type="fractalNoise"/><feDisplacementMap in="SourceGraphic" in2="noise" scale="3" xChannelSelector="R" yChannelSelector="G"/></filter><pattern id="grid-paper" width="30" height="30" patternUnits="userSpaceOnUse"><path fill="none" stroke="#e0e8f0" stroke-width="1.2" d="M 30 0 L 0 0 0 30"/></pattern><pattern id="shadow-hatch" width="8" height="8" patternTransform="rotate(45 0 0)" patternUnits="userSpaceOnUse"><line x1="0" x2="0" y1="0" y2="8" stroke="#222" stroke-width="1.2" opacity=".15"/></pattern><style>.bg-paper{fill:#fcfaf2}.bg-grid{fill:url(#grid-paper)}.margin-line{stroke:#ffadad;stroke-width:2;stroke-dasharray:6,4}.ink{stroke-width:3.5}.ink,.ink-thick,.ink-thin{fill:none;stroke:#222;stroke-linecap:round;stroke-linejoin:round;filter:url(#doodle-filter)}.ink-thin{stroke-width:2}.ink-thick{stroke-width:5}.fill-yellow{fill:#ffea00}.fill-pink{fill:#ff85a1}.fill-blue{fill:#70d6ff}.fill-purple{fill:#cdb4db}.fill-green{fill:#99e2b4}.fill-orange{fill:#ffd166}.fill-dark{fill:#222}.fill-shadow{fill:url(#shadow-hatch)}.doodle-text{font-family:&quot;Comic Sans MS&quot;,&quot;Marker Felt&quot;,&quot;Comic Neue&quot;,cursive,sans-serif;font-weight:700;fill:#222;filter:url(#doodle-filter)}</style></defs><rect width="1000" height="700" class="bg-paper"/><rect width="1000" height="700" class="bg-grid"/><line x1="65" x2="65" y1="0" y2="700" class="margin-line"/><g class="ink-thin" opacity=".3"><path d="M 25 120 L 45 100 Q 55 90 45 80 Q 35 70 45 60 L 55 70"/><path d="M 15 120 L 55 120 L 35 140 Z"/><path d="M 940 220 L 970 200 Q 980 190 970 180 Q 960 170 970 160"/><path d="M 920 80 L 925 95 L 940 100 L 925 105 L 920 120 L 915 105 L 900 100 L 915 95 Z"/><path d="M 30 500 L 33 510 L 45 513 L 33 516 L 30 528 L 27 516 L 15 513 L 27 510 Z"/></g><g id="main-frame"><rect width="860" height="625" x="95" y="40" class="fill-shadow" rx="20"/><rect width="860" height="625" x="85" y="30" fill="#fff" class="ink-thick" rx="20"/><rect width="844" height="609" x="93" y="38" class="ink-thin" rx="14"/></g><g id="header"><path d="M 115 20 L 380 20 L 360 75 L 115 75 Z" class="fill-yellow ink-thick"/><text x="135" y="57" class="doodle-text" font-size="28" letter-spacing="1">WARDROBE &amp; SHOP</text><g transform="translate(560, 40)"><rect width="130" height="36" x="0" y="0" class="fill-shadow" rx="10"/><rect width="130" height="36" x="-4" y="-4" fill="#fff" class="ink" rx="10"/><polygon points="12 14 22 4 32 14 22 28" class="fill-blue ink-thin"/><text x="42" y="19" class="doodle-text" font-size="16">1,250</text><circle cx="112" cy="14" r="10" class="fill-green ink-thin"/><text x="108" y="20" class="doodle-text" font-size="16">+</text></g><g transform="translate(710, 40)"><rect width="140" height="36" x="0" y="0" class="fill-shadow" rx="10"/><rect width="140" height="36" x="-4" y="-4" fill="#fff" class="ink" rx="10"/><circle cx="16" cy="14" r="12" class="fill-yellow ink-thin"/><text x="12" y="20" class="doodle-text" font-size="14">$</text><text x="36" y="19" class="doodle-text" font-size="16">99,400</text><circle cx="122" cy="14" r="10" class="fill-green ink-thin"/><text x="118" y="20" class="doodle-text" font-size="16">+</text></g><g transform="translate(880, 35)"><rect width="40" height="40" x="0" y="0" class="fill-pink ink-thick" rx="10"/><path d="M 12 12 L 28 28 M 28 12 L 12 28" class="ink-thick"/></g></g><g id="nav-tabs"><g transform="translate(120, 95) translate(0, 0)"><path d="M 0 30 L 10 0 L 130 0 L 140 30 Z" class="fill-shadow"/><path fill="#fff" d="M -3 30 L 7 -3 L 127 -3 L 137 30 Z" class="ink-thick"/><path d="M 5 30 L 15 5 L 120 5 L 130 30 Z" class="fill-orange ink-thin"/><text x="25" y="20" class="doodle-text" font-size="16">BUNDLES</text><polygon points="125 -2 128 5 136 5 129 10 132 17 125 12 118 17 121 10 114 5 122 5" class="fill-yellow ink-thin"/></g><g><path d="M 0 30 L 10 5 L 125 5 L 135 30 Z" class="fill-shadow" transform="translate(120, 95) translate(150, 0)"/><path fill="#fff" d="M -3 30 L 7 2 L 122 2 L 132 30 Z" class="ink" transform="translate(120, 95) translate(150, 0)"/><text x="25" y="22" class="doodle-text" font-size="15" opacity=".7" transform="translate(120, 95) translate(150, 0)">OUTFITS</text></g><g><path d="M 0 30 L 10 5 L 125 5 L 135 30 Z" class="fill-shadow" transform="translate(120, 95) translate(290, 0)"/><path fill="#fff" d="M -3 30 L 7 2 L 122 2 L 132 30 Z" class="ink" transform="translate(120, 95) translate(290, 0)"/><text x="32" y="22" class="doodle-text" font-size="15" opacity=".7" transform="translate(120, 95) translate(290, 0)">GEAR</text></g><g><path d="M 0 30 L 10 5 L 115 5 L 125 30 Z" class="fill-shadow" transform="translate(120, 95) translate(430, 0)"/><path fill="#fff" d="M -3 30 L 7 2 L 112 2 L 122 30 Z" class="ink" transform="translate(120, 95) translate(430, 0)"/><text x="28" y="22" class="doodle-text" font-size="15" opacity=".7" transform="translate(120, 95) translate(430, 0)">SKINS</text></g></g><g id="character-stage" transform="translate(115, 135)"><rect width="350" height="495" x="0" y="0" class="fill-shadow" rx="16"/><rect width="350" height="495" x="-6" y="-6" fill="#f4f9ff" class="ink-thick" rx="16"/><path fill="#fff" d="M 40 0 L 175 400 L 310 0 Z" opacity=".6"/><path stroke-dasharray="6 6" d="M 175 10 L 60 480 M 175 10 L 290 480" class="ink-thin" opacity=".3"/><ellipse cx="170" cy="430" class="fill-shadow" rx="110" ry="30"/><ellipse cx="165" cy="425" class="fill-purple ink-thick" rx="110" ry="30"/><ellipse cx="165" cy="425" class="fill-yellow ink-thin" rx="90" ry="20"/><g transform="translate(20, 20)"><rect width="110" height="30" x="0" y="0" class="fill-pink ink" rx="8"/><text x="12" y="20" fill="#fff" class="doodle-text" font-size="13">LEGENDARY!</text></g><g id="character-doodle" transform="translate(165, 190)"><path d="M -50 -20 Q -80 80 -40 180 Q 0 230 50 200 Q 100 120 70 -10 Q 0 -60 -50 -20 Z" class="fill-yellow" opacity=".3"/><ellipse cx="0" cy="210" class="fill-dark" opacity=".2" rx="45" ry="12"/><path d="M -20 40 C -70 20, -90 90, -80 140 C -50 120, -30 110, -15 90 Z" class="fill-purple ink"/><path d="M 20 40 C 70 20, 90 90, 80 140 C 50 120, 30 110, 15 90 Z" class="fill-purple ink"/><path d="M -25 120 L -30 190 L -10 200 L -10 130 Z" class="fill-dark ink"/><path d="M 25 120 L 30 190 L 10 200 L 10 130 Z" class="fill-dark ink"/><path stroke="#fff" d="M -30 170 L -10 175 M 30 170 L 10 175" class="ink-thin"/><path d="M -25 40 L 25 40 L 30 125 L -30 125 Z" class="fill-blue ink-thick"/><rect width="64" height="15" x="-32" y="105" class="fill-yellow ink" rx="3"/><rect width="20" height="25" x="-10" y="100" class="fill-pink ink" rx="4"/><polygon points="0 55 6 68 20 68 9 76 13 90 0 80 -13 90 -9 76 -20 68 -6 68" class="fill-yellow ink-thin"/><path d="M -25 45 L -55 75 L -45 85 L -20 55 Z" class="fill-blue ink"/><circle cx="-55" cy="85" r="12" class="fill-pink ink"/><path d="M -60 90 L -100 20 L -80 10 L -45 75 Z" class="fill-yellow ink-thick"/><path d="M -75 35 L -55 80" class="ink-thin"/><path d="M 25 45 L 50 70 L 40 80 L 20 55 Z" class="fill-blue ink"/><circle cx="48" cy="78" r="12" class="fill-pink ink"/><circle cx="0" cy="0" r="38" class="fill-dark ink-thick"/><path d="M -25 -25 L -45 -55 L -10 -35 Z" class="fill-pink ink"/><path d="M 25 -25 L 45 -55 L 10 -35 Z" class="fill-pink ink"/><path d="M -28 -8 Q 0 -20 28 -8 Q 20 15 -28 -8 Z" class="fill-blue ink-thick"/><path stroke="#fff" stroke-width="4" d="M -15 -5 L 15 -5" class="ink-thin"/></g><g transform="translate(260, 420)"><circle cx="0" cy="0" r="18" class="fill-orange ink"/><path d="M -8 -2 A 10 10 0 1 1 5 8 M 5 8 L 0 8 M 5 8 L 5 2" class="ink-thin"/><text x="-18" y="28" class="doodle-text" font-size="10">ROTATE</text></g><g transform="translate(25, 435)"><rect width="230" height="42" x="0" y="0" class="fill-yellow ink-thick" rx="10"/><text x="18" y="26" class="doodle-text" font-size="16">CYBER NEON NINJA</text></g></g><g id="catalog-grid"><g transform="translate(485, 135) translate(0, 0)"><rect width="210" height="230" x="0" y="0" class="fill-shadow" rx="14"/><rect width="210" height="230" x="-5" y="-5" fill="#fff" stroke-dasharray="none" class="ink-thick" rx="14"/><rect width="218" height="238" x="-9" y="-9" stroke="#ff85a1" class="ink-thick" rx="18"/><rect width="80" height="22" x="10" y="10" class="fill-purple ink-thin" rx="6"/><text x="18" y="25" class="doodle-text" font-size="11">BUNDLE</text><path d="M 150 5 L 195 5 L 195 30 L 150 30 Z" class="fill-pink ink-thin"/><text x="156" y="22" fill="#fff" class="doodle-text" font-size="12">-40%</text><g transform="translate(100, 95)"><circle cx="0" cy="0" r="30" class="fill-yellow ink-thin"/><circle cx="0" cy="-2" r="18" class="fill-dark ink"/><path d="M -12 -5 Q 0 -12 12 -5 Q 8 8 -12 -5 Z" class="fill-blue ink-thin"/><path d="M -25 -25 L 25 25 M 25 -25 L -25 25" class="ink-thick"/></g><text x="15" y="160" class="doodle-text" font-size="15">Neon Cyber Pack</text><text x="15" y="178" class="doodle-text" font-size="11" opacity=".6">5 Items Included</text><rect width="180" height="30" x="10" y="188" class="fill-green ink" rx="8"/><text x="55" y="208" class="doodle-text" font-size="14">EQUIPPED!</text></g><g transform="translate(485, 135) translate(225, 0)"><rect width="210" height="230" x="0" y="0" class="fill-shadow" rx="14"/><rect width="210" height="230" x="-5" y="-5" fill="#fff" class="ink" rx="14"/><rect width="75" height="22" x="10" y="10" class="fill-orange ink-thin" rx="6"/><text x="18" y="25" class="doodle-text" font-size="11">OUTFIT</text><g transform="translate(100, 95)"><circle cx="0" cy="0" r="30" class="fill-blue ink-thin" opacity=".4"/><path d="M -35 5 Q 0 -25 35 5 Q 15 -5 -15 -5 Z" class="fill-dark ink"/><path d="M -12 -2 Q 0 -15 12 -2" class="fill-yellow ink-thin"/><circle cx="0" cy="-8" r="4" fill="#fff" class="ink-thin"/><circle cx="0" cy="15" r="12" class="fill-orange ink-thin"/><line x1="-12" x2="12" y1="8" y2="18" class="ink-thick"/><circle cx="-3" cy="14" r="4" class="fill-dark"/></g><text x="15" y="160" class="doodle-text" font-size="15">Space Pirate</text><text x="15" y="178" class="doodle-text" font-size="11" opacity=".6">Hat + Coat + Hook</text><rect width="180" height="30" x="10" y="188" class="fill-yellow ink-thin" rx="8"/><polygon points="55 198 62 190 70 198 62 208" class="fill-blue ink-thin"/><text x="80" y="208" class="doodle-text" font-size="14">800 Gems</text></g><g transform="translate(485, 135) translate(0, 250)"><rect width="210" height="230" x="0" y="0" class="fill-shadow" rx="14"/><rect width="210" height="230" x="-5" y="-5" fill="#fff" class="ink" rx="14"/><rect width="90" height="22" x="10" y="10" class="fill-pink ink-thin" rx="6"/><text x="18" y="25" class="doodle-text" font-size="11">RARE SUIT</text><g transform="translate(100, 95)"><circle cx="0" cy="0" r="30" class="fill-green ink-thin" opacity=".3"/><path d="M -25 15 C -30 -20, 20 -30, 25 5 C 25 20, -10 25, -25 15 Z" class="fill-green ink"/><polygon fill="#fff" points="-15 5 -10 12 -5 5 0 12 5 5 10 12 15 5" class="ink-thin"/><polygon points="-18 -12 -28 -20 -10 -20" class="fill-orange ink-thin"/><polygon points="-5 -22 -10 -32 5 -27" class="fill-orange ink-thin"/><circle cx="10" cy="-5" r="4" fill="#fff" class="ink"/><circle cx="11" cy="-5" r="1.5" class="fill-dark"/></g><text x="15" y="160" class="doodle-text" font-size="15">Dino-Roar Suit</text><text x="15" y="178" class="doodle-text" font-size="11" opacity=".6">Full Body Costume</text><rect width="180" height="30" x="10" y="188" class="fill-yellow ink-thin" rx="8"/><circle cx="50" cy="203" r="8" class="fill-yellow ink-thin"/><text x="47" y="208" class="doodle-text" font-size="11">$</text><text x="68" y="208" class="doodle-text" font-size="14">15,000</text></g><g transform="translate(485, 135) translate(225, 250)"><rect width="210" height="230" x="0" y="0" class="fill-shadow" rx="14"/><rect width="210" height="230" x="-5" y="-5" fill="#fff" class="ink" rx="14"/><rect width="80" height="22" x="10" y="10" class="fill-purple ink-thin" rx="6"/><text x="18" y="25" class="doodle-text" font-size="11">BUNDLE</text><g transform="translate(100, 95)"><circle cx="0" cy="0" r="30" class="fill-purple ink-thin" opacity=".3"/><path d="M -30 15 L 0 -35 L 20 10 Z" class="fill-purple ink"/><ellipse cx="-2" cy="14" class="fill-purple ink" rx="30" ry="8"/><polygon points="-2 -5 0 -10 3 -5 8 -5 4 -2 6 3 0 0 -5 3 -3 -2 -8 -5" class="fill-yellow"/><line x1="10" x2="35" y1="10" y2="-15" stroke="#222" class="ink-thick"/><polygon points="35 -15 38 -22 45 -20 40 -13 44 -7 37 -10 32 -14" class="fill-yellow ink-thin"/></g><text x="15" y="160" class="doodle-text" font-size="15">Astro Mage Set</text><text x="15" y="178" class="doodle-text" font-size="11" opacity=".6">Hat + Robe + Staff</text><rect width="180" height="30" x="10" y="188" class="fill-yellow ink-thin" rx="8"/><polygon points="55 198 62 190 70 198 62 208" class="fill-blue ink-thin"/><text x="80" y="208" class="doodle-text" font-size="14">1,200 Gems</text></g></g><g id="footer-bar"><g><text x="0" y="18" class="doodle-text" font-size="13" transform="translate(485, 580) translate(0, 0)">SET BONUS:</text><text x="85" y="18" fill="#ff85a1" class="doodle-text" font-size="13" transform="translate(485, 580) translate(0, 0)">+15% Speed &amp; Fancy Glow</text><path stroke-dasharray="3 3" d="M 0 30 L 120 30" class="ink-thin" transform="translate(485, 580) translate(0, 0)"/></g><g transform="translate(485, 580) translate(230, -5)"><rect width="200" height="55" x="0" y="0" class="fill-shadow" rx="14"/><rect width="200" height="55" x="-4" y="-4" class="fill-green ink-thick" rx="14"/><text x="32" y="32" fill="#222" class="doodle-text" font-size="22">BUY BUNDLE</text><path d="M -12 10 L -15 20 L -25 22 L -15 25 L -12 35 L -9 25 L 1 22 L -9 20 Z" class="fill-yellow ink-thin"/><path d="M 205 20 L 208 27 L 215 28 L 208 30 L 205 37 L 202 30 L 195 28 L 202 27 Z" class="fill-yellow ink-thin"/></g></g><g id="scrollbar" transform="translate(925, 230)"><rect width="12" height="380" x="0" y="0" class="fill-paper ink-thin" rx="6"/><rect width="16" height="70" x="-2" y="20" class="fill-orange ink" rx="8"/><line x1="2" x2="10" y1="48" y2="48" class="ink-thin"/><line x1="2" x2="10" y1="55" y2="55" class="ink-thin"/><line x1="2" x2="10" y1="62" y2="62" class="ink-thin"/></g><g class="ink-thin"><path d="M 0 0 Q 30 -20 55 10" transform="translate(415, 80)"/><path d="M 55 10 L 45 5 M 55 10 L 52 -2" transform="translate(415, 80)"/><text x="-45" y="-10" class="doodle-text" font-size="12" transform="translate(415, 80) rotate(-10)">HOT ITEM!</text></g><g class="ink-thin" opacity=".6"><polygon fill="#ffea00" points="75 25 115 15 120 35 80 45"/><polygon fill="#ffea00" points="920 640 960 630 965 650 925 660"/></g></svg>