<svg xmlns="http://www.w3.org/2000/svg" width="100%" height="100%" viewBox="0 0 1000 620"><g fill="none" stroke="#1e1e1e" stroke-linecap="round" stroke-linejoin="round" stroke-width="2.5"><rect width="950" height="570" x="25" y="25" rx="14" ry="12"/><line x1="25" x2="975" y1="70" y2="70"/><circle cx="50" cy="48" r="5" fill="#1e1e1e"/><circle cx="68" cy="48" r="5" fill="#1e1e1e"/><circle cx="86" cy="48" r="5" fill="#1e1e1e"/><text x="400" y="52" fill="#1e1e1e" stroke="none" font-family="monospace" font-size="12">doodle_ui_editor.config.js — Code &amp; Preview</text><line x1="200" x2="200" y1="70" y2="595"/><text x="40" y="95" fill="#1e1e1e" stroke="none" font-family="sans-serif" font-size="11" font-weight="bold">EXPLORER</text><path d="M 40 115 L 50 115 L 53 118 L 65 118 L 65 128 L 40 128 Z"/><text x="72" y="125" fill="#1e1e1e" stroke="none" font-family="monospace" font-size="11">src/</text><path d="M 55 138 L 63 138 L 66 141 L 76 141 L 76 150 L 55 150 Z"/><text x="82" y="147" fill="#1e1e1e" stroke="none" font-family="monospace" font-size="10">components/</text><text x="95" y="167" fill="#1e1e1e" stroke="none" font-family="monospace" font-size="10">Header.jsx</text><text x="95" y="187" fill="#1e1e1e" stroke="none" font-family="monospace" font-size="10">Button.jsx</text><text x="95" y="207" fill="#1e1e1e" stroke="none" font-family="monospace" font-size="10" font-weight="bold">App.tsx</text><path d="M 85 204 L 90 204"/><path d="M 55 220 L 63 220 L 66 223 L 76 223 L 76 232 L 55 232 Z"/><text x="82" y="229" fill="#1e1e1e" stroke="none" font-family="monospace" font-size="10">styles/</text><text x="95" y="249" fill="#1e1e1e" stroke="none" font-family="monospace" font-size="10">main.css</text><line x1="560" x2="560" y1="70" y2="595" stroke-dasharray="6 6"/><rect width="120" height="28" x="200" y="70" fill="none"/><text x="215" y="88" fill="#1e1e1e" stroke="none" font-family="monospace" font-size="11" font-weight="bold">App.tsx</text><line x1="200" x2="560" y1="98" y2="98"/><g fill="#1e1e1e" stroke="none" font-family="monospace" font-size="11" opacity=".6"><text x="212" y="125">1</text><text x="212" y="145">2</text><text x="212" y="165">3</text><text x="212" y="185">4</text><text x="212" y="205">5</text><text x="212" y="225">6</text><text x="212" y="245">7</text><text x="212" y="265">8</text><text x="212" y="285">9</text><text x="208" y="305">10</text><text x="208" y="325">11</text><text x="208" y="345">12</text><text x="208" y="365">13</text><text x="208" y="385">14</text></g><g fill="#1e1e1e" stroke="none" font-family="monospace" font-size="11"><text x="235" y="125"><tspan font-weight="bold">import</tspan> React <tspan font-weight="bold">from</tspan> &apos;react&apos;;</text><text x="235" y="145"><tspan font-weight="bold">import</tspan> { Header, Card } <tspan font-weight="bold">from</tspan> &apos;./components&apos;;</text><text x="235" y="185"><tspan font-weight="bold">export default function</tspan> App() {</text><text x="250" y="205"><tspan font-weight="bold">return</tspan> (</text><text x="265" y="225">&lt;<tspan font-weight="bold">div</tspan> className=&quot;app-container&quot;&gt;</text><text x="280" y="245">&lt;<tspan font-weight="bold">Header</tspan> title=&quot;Web UI Sketch&quot; /&gt;</text><text x="280" y="265">&lt;<tspan font-weight="bold">main</tspan> className=&quot;content&quot;&gt;</text><text x="295" y="285">&lt;<tspan font-weight="bold">Card</tspan> type=&quot;Doodle&quot; /&gt;</text><text x="295" y="305">&lt;<tspan font-weight="bold">Button</tspan>&gt;Submit&lt;/<tspan font-weight="bold">Button</tspan>&gt;</text><text x="280" y="325">&lt;/<tspan font-weight="bold">main</tspan>&gt;</text><text x="265" y="345">&lt;/<tspan font-weight="bold">div</tspan>&gt;</text><text x="250" y="365">);</text><text x="235" y="385">}</text></g><line x1="395" x2="395" y1="295" y2="308" stroke-width="2"/><line x1="200" x2="560" y1="420" y2="420"/><text x="215" y="440" fill="#1e1e1e" stroke="none" font-family="monospace" font-size="11" font-weight="bold">TERMINAL — bash</text><text x="215" y="465" fill="#1e1e1e" stroke="none" font-family="monospace" font-size="11">$ npm run dev</text><text x="215" y="485" fill="#1e1e1e" stroke="none" font-family="monospace" font-size="10">&gt; vite dev server running at:</text><text x="215" y="505" fill="#1e1e1e" stroke="none" font-family="monospace" font-size="10" font-weight="bold">&gt; http://localhost:5173/</text><text x="215" y="530" fill="#1e1e1e" stroke="none" font-family="monospace" font-size="10">ready in 240ms.</text><text x="580" y="88" fill="#1e1e1e" stroke="none" font-family="sans-serif" font-size="11" font-weight="bold">LIVE PREVIEW</text><line x1="560" x2="975" y1="98" y2="98"/><rect width="370" height="450" x="580" y="115" rx="10"/><line x1="580" x2="950" y1="155" y2="155"/><circle cx="605" cy="135" r="8"/><text x="620" y="139" fill="#1e1e1e" stroke="none" font-family="sans-serif" font-size="11" font-weight="bold">Web UI Sketch</text><text x="830" y="139" fill="#1e1e1e" stroke="none" font-family="sans-serif" font-size="10">Home</text><text x="870" y="139" fill="#1e1e1e" stroke="none" font-family="sans-serif" font-size="10">Docs</text><rect width="30" height="20" x="910" y="125" rx="4"/><rect width="330" height="120" x="600" y="175" rx="8"/><text x="615" y="200" fill="#1e1e1e" stroke="none" font-family="sans-serif" font-size="14" font-weight="bold">Interactive Component</text><text x="615" y="218" fill="#1e1e1e" stroke="none" font-family="sans-serif" font-size="10">Rendered instantly from code on the left side panel.</text><path stroke-width="2" d="M 615 270 L 640 250 L 670 260 L 710 230 L 740 255 L 780 220"/><circle cx="780" cy="220" r="3" fill="#1e1e1e"/><rect width="155" height="130" x="600" y="310" rx="8"/><rect width="131" height="60" x="612" y="322" rx="4"/><path d="M 612 370 L 640 345 L 675 375 L 700 355 L 743 382"/><circle cx="720" cy="338" r="4"/><text x="612" y="402" fill="#1e1e1e" stroke="none" font-family="sans-serif" font-size="11" font-weight="bold">Doodle Card 1</text><text x="612" y="418" fill="#1e1e1e" stroke="none" font-family="sans-serif" font-size="9">Subtext caption...</text><rect width="155" height="130" x="775" y="310" rx="8"/><rect width="131" height="60" x="787" y="322" rx="4"/><path d="M 797 340 L 807 350 L 797 360"/><line x1="812" x2="825" y1="360" y2="360"/><text x="787" y="402" fill="#1e1e1e" stroke="none" font-family="sans-serif" font-size="11" font-weight="bold">Doodle Card 2</text><text x="787" y="418" fill="#1e1e1e" stroke="none" font-family="sans-serif" font-size="9">Subtext caption...</text><rect width="100" height="32" x="600" y="460" rx="6"/><text x="632" y="480" fill="#1e1e1e" stroke="none" font-family="sans-serif" font-size="11" font-weight="bold">Submit</text><rect width="100" height="32" x="712" y="460" stroke-dasharray="4 3" rx="6"/><text x="745" y="480" fill="#1e1e1e" stroke="none" font-family="sans-serif" font-size="11" font-weight="bold">Cancel</text><path fill="#1e1e1e" d="M 660 480 L 675 495 L 668 497 L 672 507 L 666 509 L 662 499 L 655 504 Z"/></g></svg>